<?xml version="1.0" standalone="no"?>
<!DOCTYPE svg PUBLIC "-//W3C//DTD SVG 20010904//EN"
 "http://www.w3.org/TR/2001/REC-SVG-20010904/DTD/svg10.dtd">
<svg version="1.0" xmlns="http://www.w3.org/2000/svg"
 width="2058.000000pt" height="2058.000000pt" viewBox="0 0 2058.000000 2058.000000"
 preserveAspectRatio="xMidYMid meet">
<metadata>
Created by potrace 1.14, written by Peter Selinger 2001-2017
</metadata>
<g transform="translate(0.000000,2058.000000) scale(0.100000,-0.100000)"
fill="#000000" stroke="none">
<path d="M4369 16875 c-2 -1 -33 -6 -69 -10 -36 -4 -67 -8 -70 -10 -3 -1 -41
-6 -84 -10 -89 -8 -116 -12 -124 -20 -13 -13 -7 -14 191 -30 124 -11 231 -33
361 -76 80 -27 244 -102 256 -118 3 -3 25 -19 49 -35 25 -16 81 -65 127 -110
73 -72 84 -88 102 -146 14 -45 17 -69 10 -77 -7 -9 -7 -13 0 -13 10 0 -8 -102
-28 -155 -22 -57 -83 -140 -152 -207 -38 -38 -73 -68 -78 -68 -5 0 -15 -6 -22
-12 -7 -7 -24 -18 -38 -25 -347 -169 -472 -223 -597 -262 -89 -28 -367 -92
-453 -105 -19 -3 -100 -16 -180 -30 -80 -14 -163 -28 -185 -31 -41 -6 -140
-21 -185 -29 -27 -5 -163 -25 -207 -31 -16 -2 -28 -4 -28 -5 0 -2 -45 -8 -95
-14 -19 -2 -51 -6 -70 -10 -19 -3 -55 -8 -80 -11 -25 -4 -56 -8 -70 -10 -14
-2 -45 -6 -70 -9 -25 -2 -68 -7 -97 -11 -29 -3 -87 -8 -130 -11 -43 -3 -94 -6
-113 -8 -19 -2 -73 -6 -120 -10 -47 -4 -92 -9 -100 -11 -8 -2 -42 -7 -75 -10
-76 -7 -140 -15 -185 -21 -19 -3 -55 -7 -80 -9 -48 -4 -57 -5 -255 -30 -71 -9
-143 -18 -160 -20 -16 -2 -46 -6 -65 -10 -19 -3 -46 -8 -60 -10 -14 -2 -44 -6
-68 -10 -23 -4 -52 -8 -65 -10 -12 -2 -35 -6 -52 -10 -16 -4 -39 -8 -50 -9
-12 -1 -26 -6 -33 -10 -7 -4 -12 -5 -12 -3 0 3 -33 -4 -72 -14 -40 -11 -84
-22 -98 -25 -13 -3 -97 -30 -186 -59 -157 -53 -222 -83 -369 -169 -38 -23 -78
-44 -87 -48 -23 -10 -23 -31 0 -24 9 3 53 14 97 26 44 11 114 34 155 49 162
63 390 120 540 136 30 3 71 7 90 10 56 7 168 15 268 20 51 2 97 7 102 10 6 4
10 3 10 -2 0 -4 11 -8 25 -8 14 0 25 4 25 8 0 5 5 5 11 1 6 -4 82 -8 168 -9
136 -3 190 -8 301 -30 14 -3 63 -12 110 -20 47 -8 96 -17 110 -20 14 -3 41 -8
60 -11 47 -7 81 -13 105 -18 11 -2 40 -7 65 -10 25 -3 86 -15 135 -27 50 -11
98 -21 107 -23 10 -1 21 -5 24 -9 4 -4 14 -7 23 -7 37 0 260 -103 318 -146 17
-13 36 -24 42 -24 5 0 16 -6 23 -13 7 -7 29 -24 48 -37 151 -105 302 -279 350
-407 96 -253 48 -503 -195 -1008 -60 -124 -145 -278 -157 -283 -5 -2 -6 -8 -2
-13 3 -5 0 -9 -5 -9 -6 0 -11 -6 -11 -12 -1 -7 -49 -84 -108 -170 -484 -711
-606 -902 -820 -1284 -203 -362 -320 -628 -422 -959 -12 -38 -24 -77 -27 -85
-3 -8 -7 -19 -9 -25 -1 -5 -19 -62 -39 -125 -20 -63 -41 -131 -46 -150 -6 -19
-14 -44 -19 -55 -8 -19 -23 -77 -21 -83 1 -1 -6 -16 -14 -32 -9 -17 -13 -30
-11 -30 3 0 -6 -33 -20 -72 -34 -101 -43 -144 -32 -159 13 -19 28 4 121 185
43 83 122 234 174 336 53 102 102 196 109 210 7 14 34 50 59 80 54 64 66 78
120 145 22 28 43 51 47 53 5 2 8 8 8 13 0 5 9 19 19 31 10 13 54 66 97 118
152 185 189 222 404 402 8 7 40 31 70 53 30 21 57 42 60 45 36 41 384 229 455
246 17 4 35 10 40 14 8 6 102 32 125 35 3 0 10 4 16 8 7 4 31 9 55 11 24 3 45
6 47 7 12 9 166 22 237 21 136 -3 265 -36 360 -91 128 -74 273 -247 363 -433
100 -207 150 -409 179 -736 8 -95 7 -452 -1 -547 -4 -38 -9 -97 -11 -130 -2
-33 -7 -80 -10 -105 -8 -67 -15 -153 -20 -265 -3 -55 -5 -100 -6 -100 -7 0
-12 -1073 -5 -1200 11 -194 21 -317 31 -400 63 -495 126 -719 415 -1475 16
-41 47 -124 70 -185 23 -60 47 -123 54 -140 37 -84 120 -265 139 -302 59 -114
91 -170 105 -185 8 -10 12 -18 9 -18 -5 0 118 -192 144 -224 5 -6 42 -54 83
-106 40 -52 88 -105 105 -118 34 -25 56 -22 42 6 -5 9 -21 46 -37 82 -15 36
-46 106 -69 155 -127 268 -280 681 -321 865 -4 19 -9 40 -10 45 -11 38 -65
309 -69 345 -3 25 -8 74 -12 110 -15 135 -7 601 11 681 4 13 8 44 11 69 3 25
7 56 9 70 13 77 18 106 22 111 2 3 6 21 9 40 16 95 101 362 136 431 11 21 17
38 15 38 -3 0 19 46 48 103 73 139 78 148 104 184 12 17 22 34 22 38 0 9 135
190 194 260 56 66 190 201 281 284 75 67 298 234 387 289 140 87 346 179 463
208 106 25 157 37 189 40 22 3 43 7 46 9 7 5 173 17 225 18 83 0 189 -18 313
-54 75 -22 144 -42 152 -44 8 -2 15 -4 15 -5 0 -1 7 -3 15 -5 59 -13 697 -241
785 -280 391 -174 497 -197 379 -84 -58 55 -67 63 -139 124 -33 27 -62 52 -65
55 -3 3 -34 30 -70 60 -63 52 -189 176 -220 216 -114 145 -175 329 -174 519 2
241 112 359 354 381 30 2 60 6 67 9 6 2 13 1 16 -2 3 -3 25 -7 49 -9 50 -4 68
-8 128 -25 25 -7 50 -14 55 -15 6 -1 44 -14 85 -29 41 -14 83 -27 93 -30 30
-7 192 -57 201 -63 11 -6 -26 51 -39 60 -47 32 -72 55 -161 143 -55 55 -116
120 -135 144 -19 24 -39 48 -44 55 -6 6 -35 49 -64 95 -140 219 -225 483 -224
696 0 105 2 121 26 223 32 134 118 274 195 319 55 33 64 35 122 35 83 0 111
-13 187 -85 29 -28 55 -48 57 -46 1 2 31 61 65 132 55 115 127 232 170 277 9
9 28 30 42 46 26 29 95 91 145 130 45 36 176 102 221 112 72 16 110 -14 129
-103 10 -47 13 -389 4 -432 -5 -21 -11 -51 -13 -68 -12 -78 -64 -236 -81 -247
-6 -4 -7 -8 -3 -8 12 0 -73 -150 -120 -213 -50 -65 -230 -230 -308 -282 -50
-33 -93 -59 -97 -57 -5 1 -8 -2 -8 -6 0 -4 -45 -30 -100 -57 -55 -28 -100 -55
-100 -60 0 -6 19 -26 43 -45 77 -63 301 -294 342 -354 112 -164 140 -211 194
-321 50 -102 96 -212 106 -250 1 -5 5 -17 8 -25 17 -41 56 -194 52 -200 -3 -5
-1 -10 4 -12 5 -1 11 -21 15 -43 3 -22 10 -69 16 -105 18 -112 20 -123 26
-220 12 -174 5 -597 -11 -700 -2 -14 -7 -50 -10 -80 -4 -30 -9 -59 -12 -63 -3
-5 -7 -23 -10 -40 -12 -79 -82 -247 -134 -323 -34 -49 -114 -134 -128 -134 -5
0 -11 -4 -13 -9 -3 -10 -138 -84 -138 -76 0 2 -12 0 -27 -6 -33 -13 -81 -16
-106 -6 -9 3 -17 2 -17 -4 0 -6 -4 -8 -8 -5 -8 5 -38 11 -102 22 -19 3 -40 10
-46 15 -6 5 -14 6 -17 2 -4 -3 -7 -1 -7 6 0 7 -4 10 -8 7 -5 -3 -50 15 -101
40 -195 95 -321 222 -483 486 l-61 100 -42 -89 c-44 -94 -45 -95 -144 -211
-199 -232 -417 -379 -745 -501 -59 -23 -112 -38 -117 -35 -5 3 -9 2 -9 -3 0
-4 -19 -14 -42 -21 -24 -7 -107 -33 -185 -58 -78 -25 -151 -47 -162 -49 -11
-2 -29 -9 -40 -15 -12 -6 -21 -9 -21 -6 0 2 -34 -9 -77 -25 -42 -15 -80 -26
-86 -22 -5 3 -7 -3 -5 -13 2 -13 13 -19 38 -20 39 -3 45 -4 175 -33 280 -63
503 -126 630 -179 168 -71 350 -176 467 -271 71 -58 223 -217 326 -340 42 -52
82 -95 87 -95 5 -1 46 53 90 119 83 125 229 283 315 340 25 16 47 33 50 37 11
14 158 87 210 104 78 26 253 26 335 0 142 -45 254 -125 323 -231 37 -56 72
-159 68 -199 -2 -15 0 -29 4 -31 7 -4 6 -20 -4 -92 -17 -129 -115 -311 -222
-417 -106 -105 -204 -158 -429 -235 -293 -100 -355 -123 -355 -131 0 -10 72
-55 178 -112 311 -168 515 -355 675 -621 45 -74 107 -199 107 -215 0 -5 5 -13
12 -20 6 -6 13 -17 14 -24 1 -7 8 -26 15 -43 7 -16 13 -32 14 -35 1 -3 6 -16
13 -30 6 -14 25 -65 43 -115 17 -49 35 -99 39 -110 5 -11 11 -29 13 -40 3 -11
15 -51 27 -90 11 -38 23 -77 25 -85 2 -8 12 -51 24 -95 11 -44 22 -91 25 -105
3 -14 9 -38 14 -55 l9 -30 6 25 c4 14 9 57 12 95 6 67 58 340 65 340 1 0 3 8
5 18 18 93 136 418 196 537 78 155 187 298 302 396 56 49 185 143 232 169 28
16 52 32 55 35 10 11 207 99 290 130 142 52 191 73 187 84 -2 5 -21 15 -43 22
-75 22 -119 34 -146 38 -15 3 -31 7 -36 10 -5 3 -23 8 -41 11 -99 17 -394 144
-511 220 -165 106 -278 257 -306 407 -11 60 -20 136 -19 150 1 7 5 43 9 79 26
280 245 473 526 464 206 -7 383 -66 535 -180 62 -46 231 -210 343 -331 35 -38
66 -64 70 -59 4 6 63 55 132 110 69 55 126 103 128 107 2 5 8 8 13 8 5 0 17 8
27 18 20 18 33 29 97 77 54 41 200 140 282 191 106 66 274 141 423 189 47 16
90 32 96 36 6 5 14 6 17 3 3 -4 14 -3 24 1 21 9 30 12 61 19 12 3 26 7 30 10
5 3 19 7 33 10 31 6 179 45 199 53 8 3 20 7 25 8 49 11 205 60 205 64 0 6
-264 103 -560 205 -231 79 -332 121 -486 200 -208 108 -439 270 -564 396 -8 8
-47 43 -87 78 l-71 62 -49 -57 c-26 -32 -50 -60 -53 -63 -3 -3 -21 -25 -40
-50 -50 -65 -162 -174 -234 -224 -95 -68 -253 -142 -342 -160 -11 -3 -37 -8
-59 -13 -79 -18 -216 -15 -287 6 -182 53 -289 162 -390 401 -31 72 -85 222
-93 255 -1 6 -6 28 -10 50 -5 22 -10 42 -10 45 -1 3 -5 16 -8 30 -4 14 -9 39
-11 55 -3 17 -8 44 -10 60 -14 78 -17 134 -19 310 -3 308 28 544 103 765 26
77 118 274 131 278 5 2 9 8 9 14 0 10 90 142 130 191 47 56 195 203 245 243
28 21 52 42 55 45 3 3 50 38 105 78 55 41 104 77 109 81 7 7 -24 24 -131 71
-18 8 -33 17 -33 21 0 5 -9 8 -20 8 -11 0 -20 5 -20 10 0 6 -6 10 -13 10 -12
0 -176 105 -227 145 -67 54 -188 178 -239 246 -48 63 -131 213 -162 294 -7 17
-39 124 -45 148 -1 4 -3 10 -4 15 -1 4 -2 10 -1 15 1 4 -4 28 -9 54 -6 25 -13
87 -15 137 -2 50 -4 96 -5 101 -1 6 -2 12 -1 15 1 3 3 51 5 106 6 137 32 184
115 200 63 13 199 -62 305 -169 124 -124 274 -360 330 -517 18 -52 38 -95 42
-97 5 -1 27 22 48 51 22 29 56 64 76 78 113 82 282 73 380 -20 57 -55 145
-273 154 -381 2 -27 6 -53 9 -58 9 -14 0 -204 -12 -258 -42 -184 -155 -404
-325 -630 -116 -154 -315 -337 -456 -418 -62 -36 -91 -64 -83 -83 3 -9 12 -13
22 -8 9 3 59 22 111 41 52 18 109 40 126 48 234 108 469 176 610 177 108 0
182 -27 242 -88 72 -74 91 -166 61 -301 -60 -274 -154 -447 -351 -643 -46 -45
-110 -103 -143 -128 -33 -25 -62 -49 -65 -52 -3 -3 -76 -53 -162 -110 -86 -58
-159 -113 -161 -122 -3 -10 -2 -18 1 -18 19 0 93 25 142 47 30 14 157 72 281
129 124 56 232 104 240 106 8 2 16 5 19 8 3 3 41 21 85 40 44 18 84 37 90 42
5 4 18 8 30 8 12 0 26 5 33 12 7 7 12 8 12 4 0 -5 6 -4 13 2 9 7 111 42 197
67 3 1 23 5 45 10 56 13 55 12 58 14 2 2 19 6 82 16 32 5 186 18 220 18 49 0
258 -14 264 -18 4 -2 29 -7 57 -10 67 -9 83 -11 129 -20 22 -4 48 -9 58 -11
10 -2 26 -5 35 -8 9 -3 29 -7 43 -10 44 -7 181 -47 234 -68 131 -51 336 -165
499 -276 225 -153 465 -370 534 -483 73 -118 130 -219 125 -219 -3 0 0 -6 6
-14 25 -29 227 -426 261 -511 42 -106 70 -210 96 -355 23 -129 22 -123 40
-310 5 -53 5 -297 0 -356 -4 -41 -13 -123 -22 -199 -2 -22 -6 -65 -9 -95 -11
-142 -18 -200 -31 -264 -8 -37 -17 -72 -20 -77 -3 -5 -7 -17 -9 -28 -6 -31
-87 -263 -111 -319 -13 -29 -24 -54 -24 -57 -1 -2 -31 -57 -67 -122 -36 -65
-72 -131 -80 -148 -7 -16 -17 -37 -22 -45 -6 -8 -60 -116 -121 -240 -62 -124
-116 -230 -121 -237 -7 -7 -6 -14 1 -18 7 -4 19 3 28 16 41 58 164 249 193
299 17 30 35 57 38 60 4 3 18 26 31 53 14 26 28 47 32 47 5 0 8 4 8 9 0 5 29
56 65 115 36 58 65 108 65 111 0 3 5 11 11 18 21 24 289 482 295 505 3 12 10
22 15 22 5 0 9 7 9 16 0 8 5 25 12 37 7 12 13 27 14 32 1 6 23 66 49 135 26
69 64 175 85 235 21 61 57 162 80 225 23 63 43 122 45 130 2 8 26 83 53 165
48 144 66 214 87 340 3 17 8 44 12 60 4 17 6 34 5 39 -2 4 3 14 9 22 6 8 8 14
4 14 -4 0 -2 6 4 13 6 8 8 17 4 20 -3 4 0 13 7 22 7 8 10 15 7 15 -3 0 0 21 8
48 18 60 52 220 60 282 2 14 6 50 10 80 3 30 8 69 10 85 18 132 24 497 11 725
-25 476 -26 1233 -1 1415 2 17 7 57 10 90 6 62 13 112 21 155 2 14 7 40 9 58
21 147 115 416 195 560 140 252 267 401 399 467 95 48 140 55 346 49 185 -6
275 -10 285 -14 3 -1 9 -2 14 -1 5 1 45 -5 89 -14 90 -18 175 -54 263 -110 32
-21 87 -53 121 -72 182 -96 320 -199 443 -330 113 -120 220 -242 320 -368 35
-44 67 -82 70 -85 10 -9 312 -415 368 -494 28 -41 52 -79 52 -84 0 -6 4 -12 8
-14 4 -1 26 -32 47 -68 33 -55 151 -238 161 -249 1 -1 7 0 13 3 14 9 -20 88
-171 386 -118 235 -176 355 -273 565 -75 162 -281 568 -305 600 -5 6 -22 37
-39 70 -18 33 -36 67 -41 75 -11 19 -80 141 -114 203 -14 26 -38 68 -53 95
-14 26 -52 99 -84 162 -73 148 -167 308 -309 528 -28 43 -284 553 -360 717
-46 101 -90 208 -95 233 -2 9 -4 17 -5 17 -1 0 -3 7 -5 15 -2 8 -7 26 -11 40
-48 181 -49 419 -2 595 5 22 12 47 13 55 2 8 11 33 21 55 10 22 19 45 20 51 4
21 82 148 116 189 113 135 306 266 483 326 22 8 42 16 45 19 3 3 12 7 20 9 8
2 59 16 114 32 119 35 279 68 411 85 190 25 403 25 675 -1 19 -2 71 -6 115
-10 44 -4 91 -8 105 -10 14 -1 50 -6 80 -10 30 -3 66 -8 80 -10 14 -2 48 -7
75 -10 28 -3 68 -8 90 -11 l40 -5 -20 20 c-11 11 -29 22 -40 24 -11 2 -27 7
-35 10 -8 4 -26 8 -40 10 -14 2 -32 6 -40 10 -20 7 -291 79 -310 82 -8 1 -22
5 -30 8 -8 4 -26 9 -40 11 -14 3 -25 5 -25 6 0 1 -7 3 -15 5 -8 2 -89 22 -180
45 -91 23 -178 44 -195 46 -16 3 -48 10 -70 16 -22 5 -51 12 -65 14 -22 4 -49
10 -100 21 -8 2 -31 5 -50 8 -19 2 -46 7 -60 10 -50 11 -216 42 -270 51 -19 3
-42 7 -50 9 -8 3 -33 7 -55 10 -22 3 -53 9 -70 12 -16 3 -40 7 -52 9 -11 1
-30 5 -41 8 -11 4 -31 9 -44 11 -26 5 -110 23 -148 31 -14 3 -36 7 -50 10 -14
3 -41 9 -60 13 -19 5 -42 9 -50 9 -17 1 -66 10 -93 18 -10 3 -30 7 -45 9 -15
3 -38 7 -51 9 -14 3 -70 15 -125 26 -56 12 -117 25 -136 30 -19 5 -48 11 -65
14 -126 22 -583 164 -800 249 -44 17 -82 32 -85 32 -3 1 -48 22 -100 47 -103
50 -206 116 -285 182 -27 23 -77 62 -110 86 -120 90 -217 202 -232 270 -12 49
-3 124 20 174 30 66 96 139 140 157 17 7 34 16 37 19 4 5 81 31 100 35 3 0 10
3 15 6 6 3 55 18 110 34 55 15 107 30 115 33 8 3 20 6 25 7 6 2 46 13 90 25
44 12 85 23 90 25 6 1 28 7 50 13 22 6 60 14 85 17 61 8 124 20 140 25 3 1
-15 8 -40 15 -34 9 -149 11 -475 9 -488 -5 -525 -6 -525 -17 0 -5 -4 -6 -8 -3
-11 7 -221 -30 -313 -55 -41 -11 -82 -22 -90 -23 -8 -2 -21 -6 -29 -9 -8 -3
-46 -15 -85 -27 -73 -23 -111 -38 -230 -86 -38 -16 -72 -29 -75 -29 -13 -2
-145 -71 -148 -77 -2 -5 -8 -8 -14 -8 -5 0 -26 -7 -46 -16 -21 -9 -46 -20 -57
-25 -11 -4 -72 -27 -135 -50 -105 -38 -256 -97 -305 -119 -40 -18 -100 -43
-110 -45 -9 -3 -150 -61 -240 -100 -16 -7 -61 -25 -100 -40 -38 -15 -83 -33
-100 -40 -74 -31 -534 -184 -601 -200 -10 -2 -57 -16 -104 -30 -248 -75 -424
-118 -540 -130 -36 -4 -73 -9 -82 -10 -22 -5 -23 4 -3 32 9 12 33 54 55 92 22
38 49 87 61 108 12 21 29 52 37 68 9 17 18 32 21 35 12 10 122 224 139 270 18
48 62 187 68 214 3 11 8 50 11 86 l6 65 -20 -25 c-11 -14 -36 -51 -57 -83 -20
-33 -41 -64 -46 -70 -6 -7 -42 -55 -82 -107 -197 -260 -517 -534 -823 -706
-88 -49 -202 -82 -258 -75 -4 1 32 38 80 84 115 108 243 239 243 249 0 4 1 11
3 15 1 4 -20 8 -47 10 -46 3 -119 14 -188 28 -114 23 -328 119 -422 190 -84
63 -223 199 -293 288 -26 33 -38 35 -29 5 4 -13 9 -33 11 -44 10 -43 75 -158
120 -211 6 -6 30 -41 55 -77 25 -37 87 -124 139 -194 123 -165 125 -168 103
-205 -22 -37 -129 -137 -206 -193 -34 -24 -65 -47 -71 -52 -5 -4 -91 -56 -190
-115 l-179 -108 -84 57 c-46 31 -89 62 -95 68 -7 6 -35 28 -62 49 -84 64 -145
118 -230 202 -142 141 -155 168 -112 236 17 29 97 122 182 213 14 15 112 164
164 251 23 39 48 78 54 87 9 13 9 20 -1 30 -9 9 -15 10 -20 2 -33 -52 -154
-178 -227 -237 -170 -135 -359 -217 -628 -272 -25 -5 -26 -8 -16 -28 7 -12 15
-24 18 -27 3 -3 12 -17 20 -32 12 -24 46 -62 225 -253 31 -33 56 -63 56 -66 0
-13 -170 24 -235 51 -98 42 -192 88 -251 125 -40 25 -77 45 -83 45 -6 0 -11 4
-11 8 0 4 -13 15 -29 25 -47 28 -221 171 -286 234 -126 125 -233 259 -368 463
-129 193 -184 267 -202 267 -19 0 -19 -6 5 -97 10 -41 22 -86 25 -100 4 -14
10 -34 15 -45 8 -19 21 -54 25 -65 1 -3 7 -18 13 -33 7 -16 12 -31 12 -34 0
-3 32 -69 71 -147 40 -77 77 -151 83 -163 6 -13 14 -23 19 -23 4 0 7 -5 7 -11
0 -6 27 -56 60 -111 33 -54 60 -101 60 -105 0 -3 14 -25 30 -50 34 -50 63
-104 58 -107 -15 -13 -74 -22 -123 -21 -73 3 -354 58 -415 82 -17 7 -28 10
-55 16 -11 2 -27 6 -35 9 -8 3 -42 14 -75 23 -61 18 -283 98 -320 115 -11 5
-144 65 -295 133 -433 196 -766 352 -780 367 -3 3 -25 15 -50 27 -25 13 -52
27 -60 32 -79 51 -484 285 -488 283 -3 -2 -8 0 -11 5 -11 15 -258 130 -295
137 -13 2 -33 9 -43 14 -16 9 -212 59 -298 76 -92 19 -180 34 -240 41 -27 3
-68 8 -90 11 -47 6 -511 15 -516 9z m1381 -548 c25 -12 47 -24 50 -27 3 -3 32
-18 64 -35 33 -16 90 -47 128 -67 37 -20 68 -33 68 -30 0 4 4 3 8 -3 4 -5 27
-21 52 -34 113 -59 479 -239 510 -251 19 -7 40 -17 45 -21 6 -4 60 -28 120
-54 61 -26 129 -55 151 -66 66 -30 468 -196 594 -246 63 -25 183 -67 265 -95
83 -27 157 -52 165 -55 8 -3 19 -5 24 -4 4 1 14 -4 22 -10 8 -6 14 -8 14 -4 0
4 6 2 13 -4 8 -6 16 -9 18 -6 6 6 166 -32 188 -45 10 -6 -18 -8 -84 -5 -173 8
-264 15 -382 29 -21 3 -63 8 -93 11 -30 3 -71 8 -90 11 -19 2 -57 6 -85 9 -45
4 -78 9 -155 20 -110 16 -280 25 -280 15 0 -3 -15 -6 -33 -6 -44 -2 -109 -14
-129 -25 -9 -5 -21 -8 -25 -8 -4 1 -15 0 -23 -3 -8 -4 -37 -12 -65 -19 -27 -6
-54 -15 -60 -18 -5 -3 -17 -6 -25 -7 -8 0 -23 -4 -32 -8 -9 -4 -22 -8 -30 -10
-7 -1 -19 -5 -26 -10 -7 -4 -16 -6 -19 -3 -2 3 -25 -3 -49 -13 -24 -11 -45
-19 -47 -19 -7 3 -108 -27 -162 -47 -11 -4 -26 -8 -32 -10 -11 -2 -68 -22
-123 -42 -8 -3 -18 -6 -22 -7 -5 -2 -10 -4 -13 -5 -3 -1 -8 -3 -12 -5 -5 -1
-17 -5 -28 -10 -11 -4 -42 -17 -70 -27 -68 -26 -300 -144 -408 -207 -49 -28
-92 -51 -97 -51 -5 0 -10 -4 -12 -8 -1 -5 -28 -23 -58 -41 -30 -17 -107 -64
-170 -103 -63 -39 -158 -93 -210 -121 -132 -70 -207 -118 -280 -180 -17 -14
-71 -58 -119 -95 -19 -15 -39 -32 -45 -37 -6 -6 -36 -30 -66 -55 -30 -25 -60
-49 -66 -55 -7 -5 -33 -28 -60 -50 -101 -85 -236 -216 -309 -300 -146 -167
-169 -183 -83 -56 238 352 588 708 993 1013 131 99 320 228 333 228 6 0 12 4
14 9 8 22 884 499 928 506 3 0 21 8 40 17 19 10 79 35 133 56 l98 39 -43 20
c-49 23 -141 55 -209 73 -77 20 -285 17 -437 -6 -20 -3 -115 -32 -211 -64 -96
-33 -178 -57 -183 -54 -4 3 -8 1 -8 -4 0 -5 -15 -13 -32 -17 -18 -4 -35 -9
-38 -10 -3 -1 -12 -5 -20 -8 -15 -6 -209 -70 -222 -73 -5 -1 -10 -3 -13 -4 -3
-1 -9 -4 -15 -5 -5 -1 -13 -4 -17 -5 -5 -1 -12 -2 -17 -1 -4 1 -13 -2 -20 -7
-9 -8 -26 -14 -81 -28 -5 -1 -29 -9 -52 -18 -24 -8 -43 -13 -43 -10 0 2 -9 0
-21 -6 -11 -6 -28 -13 -37 -15 -9 -2 -64 -18 -122 -35 -58 -17 -112 -32 -120
-34 -8 -2 -34 -9 -58 -16 -24 -6 -56 -13 -72 -15 -16 -2 -34 -6 -40 -10 -5 -3
-10 -2 -10 4 0 6 12 14 28 17 15 4 33 11 40 17 6 5 12 7 12 3 0 -3 17 1 38 9
20 9 38 15 40 15 4 -2 165 52 177 59 6 3 12 6 15 6 17 2 87 30 99 39 8 6 16
10 18 8 2 -1 24 6 49 18 26 11 49 20 51 20 23 0 277 141 393 218 245 161 338
278 336 420 -1 69 -31 151 -73 198 -31 34 -60 79 -67 102 l-8 23 44 -21 c23
-12 63 -31 88 -43z m9398 -81 c-173 -228 -178 -238 -177 -331 0 -61 3 -85 9
-85 3 0 11 -12 17 -27 29 -66 109 -135 248 -214 36 -20 284 -144 695 -347 85
-43 158 -81 162 -87 4 -5 8 -7 8 -2 0 4 12 1 28 -7 15 -8 72 -30 127 -49 118
-41 223 -88 183 -82 -147 25 -620 160 -713 204 -11 6 -40 17 -65 25 -51 16
-268 102 -375 148 -301 129 -461 200 -487 214 -16 8 -28 12 -28 8 0 -3 -6 -2
-12 3 -19 14 -128 51 -172 57 -21 4 -41 8 -45 11 -4 2 -41 7 -82 11 -67 6
-106 8 -164 5 -11 -1 -27 -1 -35 0 -8 1 -31 -2 -50 -5 -19 -3 -51 -7 -70 -10
-20 -3 -65 -12 -100 -21 -72 -18 -68 -16 -130 -35 -25 -7 -52 -14 -60 -16 -22
-3 -49 -10 -100 -25 -25 -7 -48 -13 -52 -15 -5 -1 -10 -3 -13 -4 -6 -3 -10 -4
-50 -14 -43 -11 -161 -45 -220 -64 -27 -9 -55 -17 -61 -18 -6 -1 -51 -14 -100
-29 -49 -15 -90 -27 -91 -27 -2 1 -15 -3 -30 -8 -16 -5 -82 -25 -148 -44 -146
-44 -397 -137 -389 -145 70 -70 412 -425 446 -464 78 -87 199 -230 227 -267
14 -19 31 -39 37 -45 6 -5 24 -28 40 -50 16 -22 32 -42 35 -45 49 -42 516
-726 511 -750 0 -3 5 -12 12 -20 8 -8 25 -35 39 -60 13 -25 52 -93 85 -152 33
-58 54 -104 47 -102 -7 3 -44 42 -81 86 -38 44 -76 88 -84 98 -48 55 -126 144
-135 154 -6 6 -55 63 -110 126 -110 125 -164 186 -270 298 -104 111 -847 852
-854 852 -3 0 -22 15 -41 33 -41 37 -117 97 -123 97 -3 0 -29 16 -58 36 -30
20 -81 50 -113 66 -62 31 -228 77 -281 78 -16 0 -38 7 -48 14 -16 13 -11 16
50 30 37 8 84 18 103 21 19 3 64 12 100 20 36 8 77 17 93 20 144 27 478 100
527 115 19 6 44 13 55 14 56 9 191 53 290 96 135 58 352 140 565 213 245 85
399 140 562 203 49 19 94 34 101 34 7 0 17 4 23 9 5 5 38 18 74 31 36 12 85
30 110 40 68 28 214 82 225 84 6 1 15 4 20 8 6 4 40 16 75 29 36 12 74 26 85
32 11 6 25 12 32 13 17 3 145 53 163 64 36 22 40 8 8 -34z m-655 -865 c29 -17
73 -41 98 -55 60 -32 280 -181 366 -247 81 -63 210 -166 238 -191 11 -10 63
-53 116 -95 183 -148 406 -360 628 -598 46 -50 145 -155 221 -235 75 -80 150
-161 166 -180 16 -19 31 -37 34 -40 44 -42 240 -356 240 -384 0 -3 -26 14 -57
38 -194 146 -622 423 -848 548 -97 54 -337 171 -415 202 -36 15 -73 31 -82 36
-23 13 -25 -12 -3 -30 8 -7 15 -17 15 -22 0 -5 9 -18 20 -30 11 -12 26 -34 32
-50 7 -15 16 -28 20 -28 5 0 8 -7 8 -15 0 -8 4 -15 8 -15 5 0 14 -10 21 -22
13 -27 22 -40 123 -191 72 -108 108 -169 108 -182 0 -3 -32 25 -71 62 -39 37
-88 84 -109 103 -20 19 -99 94 -176 166 -76 72 -163 153 -193 180 -30 27 -72
65 -93 84 -21 19 -44 40 -51 45 -6 6 -46 39 -87 74 -102 87 -104 88 -200 161
-47 36 -90 70 -96 75 -7 6 -111 84 -233 174 -122 90 -220 165 -219 167 2 1 21
-2 43 -7 53 -13 300 -77 345 -90 19 -5 43 -11 53 -14 9 -2 23 -7 29 -11 7 -5
19 -9 28 -10 20 -2 588 -196 683 -233 74 -29 88 -1 27 51 -70 57 -574 360
-745 447 -49 25 -93 49 -96 54 -3 5 -9 8 -13 7 -4 -2 -62 24 -129 56 -67 32
-124 59 -127 60 -5 1 -49 21 -215 99 l-80 38 40 7 c22 4 58 10 80 13 36 5 136
21 205 32 14 2 46 7 72 10 25 4 68 10 95 14 75 11 119 4 176 -28z m-10033
-161 c0 -5 -5 -10 -11 -10 -5 0 -7 5 -4 10 3 6 8 10 11 10 2 0 4 -4 4 -10z
m6515 -261 c6 -4 23 -9 38 -13 27 -6 166 -88 259 -153 59 -41 130 -106 284
-263 209 -213 243 -251 237 -266 -3 -8 -8 -14 -12 -14 -3 0 -62 45 -130 100
-149 121 -369 270 -400 270 -4 0 -5 -21 -1 -47 6 -44 89 -217 157 -325 13 -21
23 -41 23 -46 0 -31 70 -66 315 -159 254 -96 314 -169 342 -418 13 -117 6
-445 -11 -545 -2 -14 -7 -54 -10 -90 -3 -36 -8 -76 -10 -90 -3 -14 -7 -45 -10
-70 -3 -25 -8 -56 -10 -70 -3 -14 -7 -45 -10 -70 -3 -25 -8 -56 -11 -70 -3
-14 -7 -38 -10 -55 -2 -16 -6 -39 -8 -50 -3 -11 -8 -43 -12 -72 -10 -75 -29
-86 -46 -26 -12 45 -93 262 -135 363 -25 60 -157 324 -191 380 -14 25 -31 54
-37 65 -57 103 -299 435 -318 435 -3 0 -5 -6 -6 -12 -4 -39 -20 -126 -44 -243
-11 -55 -21 -109 -22 -120 0 -11 -3 -22 -6 -25 -5 -4 -35 -132 -44 -185 -12
-78 -80 -255 -97 -255 -12 0 -14 84 -3 190 14 150 -1 425 -32 585 -2 11 -6 31
-9 45 -12 64 -48 191 -66 235 -7 17 -13 35 -14 40 -6 25 -70 179 -118 280 -51
109 -245 471 -293 546 -13 21 -22 39 -18 39 3 0 -2 7 -10 16 -9 8 -16 20 -16
26 0 16 166 -161 350 -372 30 -35 60 -68 65 -74 18 -20 209 -251 233 -281 101
-133 253 -341 325 -445 48 -69 90 -130 94 -136 5 -5 14 -21 22 -35 8 -13 39
-63 68 -111 29 -48 61 -104 70 -123 20 -42 40 -45 50 -7 14 48 6 394 -12 557
-10 84 -31 128 -90 188 -47 47 -104 77 -260 142 -49 20 -108 45 -130 55 -22
10 -56 25 -75 33 -49 20 -68 41 -81 90 -6 23 -11 43 -11 44 1 2 -6 26 -15 55
-8 29 -17 63 -19 75 -2 12 -9 34 -14 48 -5 14 -7 25 -5 25 2 0 0 12 -6 28 -6
15 -13 41 -16 57 -3 17 -9 38 -14 48 -5 9 -8 17 -5 17 2 0 -2 20 -10 45 -7 25
-10 45 -7 45 3 0 0 6 -6 14 -7 8 -14 48 -16 89 -5 75 -1 84 30 66z m-4461 -85
c-170 -118 -202 -156 -259 -309 -14 -37 -33 -81 -41 -97 -9 -16 -14 -32 -11
-34 2 -3 39 16 81 41 111 65 195 106 330 160 65 26 123 48 130 50 6 1 18 5 26
8 44 19 421 119 427 114 1 -2 -23 -16 -55 -33 -31 -16 -72 -38 -92 -50 -19
-11 -80 -45 -135 -74 -55 -29 -131 -70 -168 -92 -38 -21 -70 -38 -72 -38 -2 0
-58 -31 -124 -70 -66 -38 -125 -70 -131 -70 -5 0 -10 -4 -10 -8 0 -5 -16 -16
-35 -25 -79 -38 -626 -375 -680 -419 -5 -5 -84 -59 -175 -120 -189 -127 -329
-231 -415 -309 -117 -104 -112 -101 -79 -41 34 61 78 109 373 407 119 121 228
237 241 259 13 21 29 62 36 90 17 68 44 164 57 196 3 8 11 33 17 55 40 132
119 199 380 318 62 28 189 79 205 81 5 1 16 5 22 9 7 5 21 10 30 12 10 2 59
17 108 34 50 16 98 30 109 30 10 1 -30 -33 -90 -75z m1446 9 c-5 -10 -44 -65
-85 -123 -146 -205 -333 -539 -349 -621 -2 -13 -10 -37 -16 -54 -7 -16 -14
-46 -17 -65 -6 -43 -4 -40 -44 -46 -52 -9 -63 -11 -79 -17 -14 -5 -80 -20
-140 -32 -14 -2 -43 -9 -65 -14 -22 -6 -53 -12 -70 -15 -16 -3 -104 -21 -195
-40 -91 -19 -176 -37 -190 -40 -84 -16 -106 -35 -115 -103 -5 -33 -19 -114
-30 -178 -2 -11 -6 -31 -9 -45 -3 -14 -8 -36 -10 -50 -3 -14 -10 -50 -15 -80
-6 -30 -13 -65 -15 -76 -12 -60 -48 -106 -136 -174 -51 -40 -47 -37 -160 -127
-110 -89 -187 -143 -203 -143 -7 0 -8 3 -2 8 6 4 28 31 50 60 21 28 43 52 47
52 4 0 8 4 8 10 0 5 15 31 34 57 64 90 132 252 152 363 8 46 12 176 6 223 -4
39 -26 49 -50 25 -7 -7 -12 -8 -12 -4 0 5 -10 2 -22 -6 -13 -8 -54 -27 -93
-43 -38 -16 -73 -34 -77 -39 -4 -6 -8 -8 -8 -3 0 9 -198 -94 -255 -133 -51
-35 -118 -71 -177 -98 -65 -28 -53 -7 35 65 39 32 78 65 87 73 40 38 269 230
364 305 21 17 43 35 50 40 49 44 611 445 622 445 3 0 23 14 44 30 21 17 43 30
49 30 6 0 11 3 11 8 0 4 17 16 37 27 20 11 41 25 47 30 6 6 29 22 51 35 22 13
42 27 45 30 3 3 21 15 40 27 19 11 76 45 125 75 113 69 262 150 271 148 4 -1
10 2 13 8 9 14 311 162 331 162 9 0 20 3 24 8 4 4 28 14 54 23 26 9 48 17 50
18 1 0 -2 -7 -8 -16z m3797 -25 c15 -7 30 -15 33 -18 3 -3 46 -34 95 -70 50
-35 99 -72 109 -82 11 -10 25 -18 32 -18 7 0 14 -3 16 -8 2 -4 64 -51 138
-105 74 -53 140 -100 145 -105 6 -4 62 -46 125 -92 63 -46 126 -94 141 -107
14 -13 30 -23 36 -23 6 0 13 -4 15 -8 2 -4 32 -30 68 -57 68 -51 247 -192 266
-210 7 -5 31 -26 55 -45 156 -126 285 -246 574 -535 317 -316 346 -349 630
-706 124 -156 231 -291 238 -299 7 -8 26 -33 42 -55 16 -22 32 -42 35 -45 10
-9 144 -182 173 -224 52 -75 153 -231 173 -266 10 -19 22 -37 25 -40 25 -20
129 -221 129 -249 0 -11 -38 32 -97 113 -37 50 -82 107 -100 126 -18 19 -33
38 -33 41 0 3 -10 17 -22 31 -13 13 -41 47 -63 74 -112 136 -264 297 -370 389
-16 14 -46 41 -65 58 -19 18 -69 59 -110 92 -41 33 -77 62 -80 65 -3 3 -21 17
-40 30 -19 13 -37 27 -40 30 -8 10 -229 167 -288 205 -96 62 -558 370 -562
374 -3 3 -17 12 -32 20 -16 8 -28 18 -28 23 0 4 -5 8 -10 8 -6 0 -49 26 -96
57 -76 51 -92 57 -137 58 -29 0 -51 -4 -50 -10 0 -5 4 -23 7 -40 60 -336 69
-389 82 -505 1 -14 5 -45 8 -70 5 -47 13 -129 22 -240 3 -36 7 -104 8 -151 2
-47 6 -91 10 -98 4 -6 2 -11 -4 -11 -6 0 -8 -5 -4 -11 8 -13 13 -161 5 -153
-3 3 -6 9 -7 12 0 4 -3 21 -7 37 -4 17 -10 41 -13 55 -8 39 -12 55 -14 55 -1
0 -3 7 -5 15 -1 8 -8 35 -15 60 -7 25 -14 52 -16 60 -16 68 -80 279 -111 370
-8 25 -16 50 -17 55 -1 6 -7 24 -13 40 -7 17 -32 86 -56 155 -99 276 -231 585
-389 910 -55 113 -104 207 -109 208 -5 2 -9 10 -9 18 0 8 -11 32 -25 54 -14
22 -25 42 -25 45 0 9 -134 248 -229 407 -28 48 -51 91 -51 97 0 5 -4 11 -8 13
-4 2 -21 25 -37 52 -17 28 -40 66 -52 85 -43 69 -44 71 -34 71 6 0 23 -6 38
-12z m1911 -94 c109 -58 208 -121 397 -253 123 -86 306 -218 350 -254 6 -4 46
-35 90 -68 44 -33 89 -68 100 -77 11 -9 38 -30 60 -47 39 -29 53 -40 78 -60 7
-6 37 -30 67 -55 30 -25 61 -51 68 -57 7 -7 16 -13 20 -13 4 0 23 -15 42 -33
19 -18 60 -52 90 -77 106 -87 326 -287 391 -356 46 -50 86 -104 76 -104 -3 0
-63 25 -134 56 -70 31 -134 56 -140 57 -7 0 -13 4 -13 9 0 4 -3 7 -7 6 -5 0
-17 2 -28 6 -27 11 -49 17 -53 16 -1 0 -15 6 -31 14 -43 23 -267 93 -356 111
-11 3 -33 8 -50 11 -16 4 -39 8 -50 10 -11 1 -36 5 -55 9 -116 22 -206 28
-229 16 -23 -13 -28 -63 -12 -136 5 -22 12 -58 15 -80 3 -22 10 -64 16 -94 16
-86 12 -82 -36 29 -57 134 -244 513 -323 654 -34 60 -61 112 -61 117 0 5 -5 9
-11 9 -5 0 -8 4 -5 9 3 5 -1 14 -9 21 -8 7 -15 19 -15 26 0 8 -4 14 -9 14 -5
0 -11 8 -14 18 -3 9 -14 30 -24 47 -10 16 -51 83 -92 150 -111 179 -222 395
-203 395 8 0 53 -21 100 -46z m-4866 9 c-47 -75 -98 -148 -104 -151 -5 -2 -8
-8 -8 -14 0 -6 -40 -65 -88 -132 -49 -67 -112 -160 -140 -207 -49 -82 -172
-329 -223 -449 -13 -30 -52 -113 -87 -183 -105 -213 -126 -267 -248 -622 -19
-55 -38 -107 -41 -115 -3 -8 -5 -21 -4 -27 1 -7 -4 -13 -10 -13 -7 0 -10 -2
-7 -6 3 -3 -1 -26 -9 -52 -25 -79 -64 -216 -69 -242 -3 -14 -7 -33 -10 -42 -3
-9 -7 -26 -9 -37 -3 -12 -7 -29 -9 -40 -2 -10 -7 -36 -10 -57 -4 -22 -8 -46
-11 -54 -2 -8 -6 -37 -10 -65 -6 -51 -11 -86 -20 -151 -8 -54 -17 -164 -19
-211 0 -24 -3 -43 -6 -43 -3 0 -6 -12 -6 -27 -3 -92 -5 -106 -9 -101 -13 12
-28 125 -40 293 -3 44 -7 95 -9 113 -1 17 2 32 7 32 4 0 5 5 1 11 -13 21 -3
184 21 354 16 108 25 176 30 215 5 41 25 183 30 215 5 34 24 174 31 223 11 82
15 105 21 115 9 14 -36 2 -136 -39 -47 -19 -90 -36 -96 -38 -8 -2 -87 -38
-215 -99 -14 -7 -28 -16 -32 -22 -4 -5 -8 -7 -8 -3 0 6 -39 -15 -229 -124 -91
-52 -377 -255 -457 -324 -12 -11 -46 -39 -75 -64 -56 -46 -338 -326 -374 -370
-11 -14 -45 -54 -75 -90 -58 -68 -79 -96 -154 -195 -25 -33 -49 -64 -53 -70
-5 -5 -44 -64 -88 -130 -91 -138 -125 -182 -125 -163 0 7 18 44 40 82 22 37
40 70 40 71 0 2 30 54 67 117 92 156 177 283 352 518 64 85 61 82 133 171 29
36 67 83 83 105 17 21 102 109 189 194 88 85 389 385 670 665 440 439 540 536
601 583 6 4 51 39 100 77 135 105 265 202 410 303 72 50 191 135 265 189 118
85 219 149 242 152 4 1 0 -11 -10 -26z m748 -225 c-11 -40 -21 -84 -24 -98 -2
-14 -9 -47 -15 -73 -6 -26 -20 -107 -31 -180 -24 -164 -29 -204 -45 -355 -2
-24 -7 -46 -9 -51 -3 -4 -1 -13 4 -21 6 -10 16 3 37 46 16 32 92 159 169 282
76 122 157 251 178 287 22 35 45 66 51 69 11 4 -44 -136 -59 -151 -3 -4 -6
-15 -6 -25 0 -10 -4 -18 -10 -18 -5 0 -9 -3 -8 -7 4 -11 -25 -75 -76 -171 -25
-45 -45 -85 -45 -87 -1 -3 -12 -30 -26 -61 -64 -144 -119 -327 -140 -469 -2
-11 -4 -20 -5 -20 -1 0 -3 -11 -5 -25 -1 -14 -5 -38 -8 -53 -3 -16 -9 -68 -12
-115 -11 -139 -23 -130 -59 43 -8 39 -17 90 -21 115 -3 25 -8 56 -10 70 -2 14
-7 52 -11 85 -3 33 -8 67 -9 76 -2 8 -6 51 -10 95 -4 43 -10 97 -14 119 l-8
40 -42 -90 c-23 -49 -49 -103 -56 -120 -14 -32 -63 -138 -114 -247 -18 -38
-33 -68 -36 -68 -5 0 5 62 15 90 5 14 32 99 60 190 65 208 136 399 204 555 8
17 44 98 81 182 55 125 115 233 130 233 2 0 -5 -33 -15 -72z m-334 -126 c-30
-71 -71 -164 -90 -206 -20 -43 -36 -79 -36 -82 0 -2 -16 -39 -36 -81 -20 -43
-54 -121 -75 -173 -22 -52 -44 -104 -49 -115 -12 -26 -120 -325 -124 -345 -2
-8 -7 -24 -12 -35 -4 -11 -20 -60 -34 -109 -14 -49 -30 -91 -36 -93 -6 -2 -11
102 -12 289 -2 161 -5 294 -8 298 -9 8 -101 -98 -135 -155 -16 -27 -34 -57
-39 -65 -5 -8 -37 -62 -71 -120 -114 -194 -124 -210 -132 -210 -20 0 24 205
65 304 16 39 49 118 73 176 39 96 59 141 131 298 13 29 24 54 24 57 0 2 27 60
61 130 56 116 146 252 199 300 l21 19 -5 -24 c-3 -14 -8 -50 -11 -80 -8 -95
-15 -183 -20 -240 -11 -152 -17 -226 -21 -243 -1 -10 1 -28 6 -40 5 -13 9 -16
10 -7 1 37 174 380 200 400 4 3 9 10 11 16 7 19 193 274 197 270 2 -2 -21 -62
-52 -134z m1070 29 c-6 -9 -13 -50 -21 -116 -3 -27 -7 -59 -9 -70 -2 -11 -7
-47 -10 -80 -4 -33 -9 -74 -12 -91 -3 -17 -6 -46 -8 -65 -15 -133 -19 -165
-21 -169 -2 -3 -7 -33 -10 -65 -4 -33 -9 -63 -12 -68 -2 -4 -6 -19 -9 -32 -8
-47 -62 -129 -140 -215 -55 -60 -74 -83 -74 -90 0 -3 21 -29 48 -57 26 -28 59
-75 74 -105 40 -79 68 -145 68 -160 0 -8 4 -18 8 -23 9 -11 31 -78 57 -170 9
-33 21 -71 26 -85 4 -14 10 -38 13 -55 3 -16 9 -47 14 -67 6 -20 9 -38 8 -40
0 -2 2 -1 6 2 3 3 9 25 13 50 13 88 87 352 106 376 5 6 6 14 2 18 -4 4 -3 10
3 14 5 4 18 25 29 47 15 33 42 75 92 140 5 6 21 28 38 50 16 22 33 42 37 43
16 7 7 28 -28 67 -54 61 -133 174 -164 235 -46 91 -49 109 -65 360 -4 52 -8
140 -10 195 -2 55 -7 133 -10 174 -3 41 -2 71 2 68 4 -4 8 -13 9 -20 3 -21 34
-141 43 -167 5 -14 19 -61 31 -105 13 -44 26 -87 31 -95 4 -8 15 -33 24 -55
30 -68 85 -178 106 -206 10 -15 19 -30 19 -33 0 -4 4 -12 10 -19 5 -7 43 -57
84 -112 41 -55 96 -122 121 -150 25 -27 54 -61 64 -75 l19 -25 -125 -170 c-69
-93 -142 -195 -163 -225 -37 -54 -109 -189 -114 -213 -2 -7 -6 -19 -9 -27 -13
-31 -30 -75 -32 -80 0 -3 -13 -43 -28 -90 -43 -133 -63 -203 -74 -260 -8 -40
-11 -55 -13 -55 -11 0 -15 -285 -5 -370 4 -27 8 -61 10 -75 2 -14 7 -50 10
-80 3 -30 19 -114 35 -186 66 -304 163 -450 455 -682 66 -52 124 -99 130 -104
5 -5 -28 -45 -86 -101 -178 -171 -276 -323 -365 -561 -18 -49 -31 -92 -29 -95
3 -2 1 -9 -4 -15 -9 -11 -45 -140 -56 -206 -22 -119 -26 -156 -32 -260 -14
-244 -7 -745 12 -870 5 -33 20 -127 31 -195 23 -142 98 -390 148 -485 79 -152
207 -252 381 -296 17 -4 37 -9 45 -11 41 -11 284 -4 306 9 5 3 25 9 44 13 84
17 348 147 358 176 2 5 8 9 14 9 5 0 51 31 101 69 51 37 101 71 113 75 15 5
39 -5 85 -36 35 -23 69 -46 74 -51 16 -14 235 -156 238 -155 1 1 20 -10 42
-24 82 -51 243 -131 370 -183 86 -36 161 -70 173 -79 10 -7 -10 -18 -73 -42
-95 -36 -122 -47 -245 -108 -106 -53 -133 -68 -142 -81 -4 -5 -8 -7 -8 -3 0
13 -283 -180 -347 -237 -6 -5 -24 -20 -40 -32 -15 -12 -43 -35 -62 -51 l-33
-29 -32 31 c-17 17 -58 54 -91 81 -33 28 -65 55 -71 60 -44 39 -70 58 -135 97
-80 47 -141 76 -177 83 -12 2 -26 6 -31 10 -22 13 -123 27 -221 30 -236 9
-490 -74 -596 -193 -60 -68 -113 -173 -128 -255 -3 -15 -7 -35 -10 -45 -14
-46 -31 -255 -30 -372 1 -245 96 -393 391 -611 76 -56 142 -106 146 -109 5 -4
-26 -31 -68 -61 -180 -127 -249 -186 -314 -268 -69 -87 -145 -214 -134 -224 3
-4 1 -7 -5 -7 -7 0 -12 -8 -12 -18 0 -10 -4 -22 -9 -28 -15 -16 -78 -234 -96
-334 -18 -99 -29 -102 -61 -14 -12 32 -28 73 -35 89 -7 17 -13 32 -14 35 0 3
-6 15 -13 27 -7 13 -10 23 -8 23 7 0 -77 166 -123 245 -119 204 -280 374 -457
480 l-54 33 35 21 c20 12 39 21 43 21 4 0 31 16 61 35 29 19 55 35 57 35 17 0
133 98 209 175 62 62 103 114 127 161 20 38 37 72 38 76 0 4 7 26 15 49 24 67
27 87 30 209 3 82 -2 147 -15 225 -22 124 -38 168 -83 234 -39 58 -154 171
-173 171 -8 0 -14 3 -14 8 0 11 -97 58 -167 82 -56 18 -166 37 -230 39 -13 0
-29 1 -35 2 -17 2 -128 -9 -153 -15 -106 -24 -211 -61 -236 -82 -8 -8 -20 -14
-26 -14 -19 0 -157 -96 -269 -185 -60 -49 -111 -91 -114 -94 -3 -3 -15 -14
-26 -24 -21 -18 -22 -17 -87 65 -65 84 -171 193 -217 225 -14 9 -27 19 -30 23
-15 17 -89 70 -99 70 -6 0 -11 3 -11 8 0 4 -10 12 -23 18 -12 6 -49 26 -82 43
-57 31 -205 96 -215 94 -3 0 -27 7 -55 17 -27 9 -68 20 -90 24 l-39 8 99 37
c124 47 221 93 303 143 34 21 67 38 72 38 6 0 10 5 10 10 0 6 5 10 10 10 6 0
16 5 23 10 7 6 37 29 67 51 90 66 113 83 130 99 8 8 31 28 50 44 19 15 70 62
112 102 43 41 81 74 86 74 4 0 25 -18 46 -40 21 -22 59 -57 84 -78 26 -20 52
-42 57 -49 22 -24 214 -146 290 -182 188 -91 289 -105 475 -67 41 9 148 64
203 105 44 32 132 121 173 173 56 71 127 294 148 463 3 22 8 56 11 75 31 211
37 673 10 897 -2 21 -7 67 -10 103 -3 36 -8 76 -10 90 -3 14 -7 43 -10 65 -2
22 -7 50 -9 61 -2 12 -7 37 -10 55 -3 19 -7 43 -9 54 -3 11 -7 38 -11 60 -45
258 -132 444 -356 759 -52 73 -51 71 -100 126 -48 53 -65 80 -51 80 23 0 141
90 217 165 134 133 215 265 279 453 36 107 89 348 79 363 -3 5 -1 9 3 9 5 0 9
10 10 23 0 12 4 65 8 117 3 52 6 153 6 223 0 114 -4 143 -35 260 -94 355 -217
663 -321 801 -23 31 -69 85 -102 119 l-61 63 30 34 c17 19 63 71 103 115 173
192 225 271 289 437 13 35 30 77 36 93 7 17 14 35 16 42 3 17 94 262 109 298
8 16 11 33 8 39 -3 5 -1 6 6 2 6 -4 9 -11 7 -15z m5944 -2017 c50 -9 65 -12
65 -14 0 -1 13 -4 29 -6 41 -7 192 -66 275 -108 147 -74 497 -300 626 -404 89
-72 307 -288 325 -323 l12 -22 -33 20 c-140 85 -347 175 -459 199 -42 9 -344
10 -380 1 -14 -3 -37 -9 -52 -12 -25 -4 -52 -10 -98 -20 -8 -2 -16 -4 -17 -5
-2 -2 -7 -3 -12 -4 -5 0 -13 -4 -17 -8 -4 -5 -14 -8 -22 -8 -25 0 -144 -61
-207 -105 -71 -51 -170 -152 -210 -215 -38 -60 -95 -170 -88 -170 3 0 1 -6 -4
-12 -21 -27 -80 -238 -97 -350 -11 -72 -27 -132 -39 -146 -9 -12 -14 0 -23 59
-7 41 -15 88 -18 104 -3 17 -8 48 -10 70 -3 22 -14 96 -25 165 -11 69 -22 139
-24 155 -3 17 -7 46 -11 65 -18 108 -25 155 -30 205 -2 22 -6 51 -10 65 -28
123 -38 304 -20 404 21 123 77 241 147 314 92 95 260 137 427 106z m-11570 -7
c97 -22 229 -84 252 -119 25 -38 44 -108 56 -203 13 -104 5 -346 -14 -430 -2
-11 -6 -36 -9 -55 -3 -19 -12 -71 -21 -115 -8 -44 -17 -89 -18 -100 -1 -11 -8
-45 -14 -75 -7 -30 -14 -66 -16 -80 -3 -14 -5 -25 -6 -25 -1 0 -3 -11 -6 -25
-2 -14 -12 -61 -21 -105 -9 -44 -17 -87 -18 -95 -1 -8 -5 -26 -8 -40 -8 -28
-17 -75 -22 -107 -2 -12 -10 -32 -18 -44 -15 -21 -16 -21 -28 22 -14 49 -14
52 -22 94 -45 235 -155 517 -271 689 -25 38 -46 71 -46 73 0 10 -126 123 -137
123 -6 0 -13 4 -15 8 -5 13 -91 50 -159 68 -87 23 -325 23 -444 -1 -22 -4 -47
-9 -55 -10 -167 -32 -294 -86 -623 -264 -43 -24 -81 -41 -83 -38 -4 4 182 160
300 252 21 17 44 35 50 41 38 37 358 264 371 264 4 0 19 8 33 19 29 20 213
114 297 151 63 28 270 97 314 105 19 3 37 8 40 10 4 2 38 6 76 10 39 4 71 8
73 10 3 3 193 -4 212 -8z m3950 -425 c0 -10 -80 -100 -155 -176 -69 -70 -114
-135 -131 -191 -32 -101 -36 -131 -37 -250 -1 -103 5 -198 12 -222 1 -2 1 -5
2 -8 3 -23 41 -142 57 -178 12 -26 19 -47 16 -47 -3 0 3 -12 13 -27 11 -16 24
-39 31 -53 31 -63 133 -202 187 -255 12 -11 32 -35 45 -54 l23 -33 -44 8 c-64
12 -176 9 -192 -4 -8 -7 -16 -9 -20 -6 -10 10 -113 -100 -139 -151 -65 -125
-101 -254 -103 -379 -1 -44 -6 -81 -11 -83 -8 -3 -61 124 -78 182 -1 6 -8 28
-14 51 -11 38 -25 104 -38 179 -2 17 -7 37 -9 45 -2 8 -7 40 -10 70 -4 30 -9
73 -12 95 -15 107 -5 526 12 555 2 3 6 25 10 49 3 24 10 54 15 67 5 13 7 24 5
24 -7 0 55 169 88 240 87 184 234 368 398 495 35 27 66 53 67 57 5 10 12 10
12 0z m3616 -115 c95 -70 186 -176 232 -269 39 -80 67 -156 76 -208 2 -14 14
-74 25 -135 38 -197 50 -331 47 -500 -4 -164 -11 -232 -27 -251 -5 -6 -7 -13
-4 -16 3 -3 -8 -43 -24 -89 -31 -89 -60 -184 -65 -209 -4 -23 -26 -103 -33
-120 -3 -8 -7 -21 -9 -28 -1 -6 -15 -32 -31 -57 -46 -74 -53 -63 -57 93 -6
206 -54 312 -164 357 -46 20 -196 5 -315 -31 -17 -5 -17 -4 -3 23 8 15 43 57
76 93 117 126 233 324 295 505 20 59 25 74 24 78 0 1 4 14 10 29 12 32 57 198
65 243 24 122 24 141 0 245 -16 69 -78 165 -156 243 -64 64 -45 66 38 4z
m-5221 -171 c94 -19 211 -120 264 -227 18 -37 50 -134 71 -215 93 -357 109
-414 122 -429 4 -5 8 -15 8 -22 0 -26 226 -594 368 -928 9 -21 17 -42 17 -45
1 -10 56 -112 97 -178 66 -110 158 -218 272 -320 37 -33 46 -52 24 -52 -17 0
-150 68 -340 173 -86 48 -160 87 -164 87 -4 0 -15 6 -23 14 -40 33 -285 125
-410 153 -115 25 -314 26 -426 2 -112 -25 -112 -25 -190 -57 -21 -10 -41 -15
-44 -14 -2 2 -7 -1 -11 -8 -4 -6 -13 -12 -21 -13 -8 -2 -52 -25 -99 -52 -47
-28 -89 -52 -95 -54 -23 -9 -204 -139 -265 -190 -191 -160 -366 -374 -586
-717 -131 -204 -299 -503 -309 -553 -2 -9 -11 -36 -20 -61 -9 -25 -18 -52 -20
-60 -2 -8 -10 -35 -18 -60 -8 -25 -22 -73 -32 -107 -24 -82 -40 -82 -38 -1 2
108 13 321 18 368 2 25 7 79 10 120 4 41 8 89 10 105 2 17 6 57 10 90 7 65 13
106 20 145 3 14 7 41 10 60 16 99 51 249 100 430 14 52 141 406 153 424 3 6 7
16 8 21 2 8 105 276 139 360 5 11 9 22 10 25 0 3 11 27 23 54 12 27 22 51 22
55 0 3 6 17 13 31 8 14 18 39 24 55 43 123 217 464 368 720 65 110 123 209
129 220 16 28 49 79 56 85 3 3 14 18 24 35 11 16 23 34 28 40 91 114 126 154
203 230 100 101 197 185 226 199 10 5 19 13 19 18 0 4 9 8 20 8 11 0 20 4 20
9 0 10 56 26 77 23 6 -2 14 1 17 6 5 9 59 8 111 -2z m6780 -91 c44 -15 98 -35
120 -45 22 -10 57 -25 79 -34 125 -52 218 -136 328 -296 178 -262 218 -322
218 -331 0 -5 3 -9 8 -9 4 0 12 -10 18 -23 6 -12 35 -60 63 -107 127 -206 301
-600 406 -915 49 -149 125 -406 129 -440 1 -12 5 -25 8 -30 5 -10 56 -217 65
-265 2 -14 8 -41 13 -60 5 -19 12 -51 15 -70 4 -19 11 -60 17 -90 5 -30 11
-68 14 -85 2 -16 8 -55 13 -85 15 -83 34 -252 46 -400 21 -246 32 -678 21
-805 -12 -130 -19 -222 -19 -232 0 -7 -7 -13 -16 -13 -14 0 -45 85 -76 210 -2
8 -4 16 -5 18 -2 1 -3 10 -4 20 -1 9 -4 22 -7 27 -4 6 -10 28 -14 50 -9 44
-11 53 -15 60 -3 5 -3 6 -15 50 -4 17 -10 35 -14 40 -3 6 -7 15 -8 20 -7 30
-11 42 -17 57 -4 9 -9 22 -10 30 -3 22 -58 162 -69 176 -5 6 -6 12 -3 12 4 0
1 12 -8 28 -8 15 -22 45 -31 67 -42 97 -150 304 -215 412 -162 267 -418 589
-571 718 -66 55 -330 198 -366 198 -7 0 -13 5 -13 10 0 6 -3 8 -6 4 -4 -3 -23
2 -43 12 -211 106 -518 125 -816 50 -44 -11 -84 -22 -90 -23 -5 -1 -37 -10
-70 -20 -33 -10 -64 -19 -70 -21 -5 -1 -17 -5 -25 -8 -8 -4 -51 -18 -95 -32
-44 -15 -87 -29 -95 -32 -18 -7 -13 -6 -70 -23 -82 -24 -83 -24 -63 8 10 15
40 59 68 97 54 74 82 117 101 150 6 11 21 38 34 60 38 68 94 180 91 184 -1 2
1 7 6 10 22 15 127 286 244 626 44 127 82 237 86 245 7 16 9 25 17 55 3 11 30
92 61 180 31 88 65 187 76 220 21 61 100 225 122 252 110 137 173 173 297 168
50 -1 102 -11 155 -30z"/>
<path d="M7300 14295 c-130 -44 -384 -162 -483 -225 -37 -24 -45 -33 -36 -43
9 -10 64 -16 64 -7 0 2 9 3 135 15 41 3 91 8 110 10 19 1 69 6 110 9 101 9
138 22 154 54 14 27 87 232 83 232 -1 0 -63 -21 -137 -45z"/>
<path d="M12351 14083 c22 -49 44 -96 50 -107 6 -10 20 -35 32 -55 11 -20 25
-45 31 -56 13 -24 24 -38 84 -105 34 -38 59 -54 125 -80 45 -17 104 -40 131
-51 27 -10 52 -19 57 -19 9 0 129 -52 172 -74 38 -21 35 -3 -10 64 -39 59
-236 260 -318 325 -27 22 -52 42 -55 45 -16 16 -132 101 -175 127 -55 35 -134
72 -152 73 -7 0 5 -36 28 -87z"/>
<path d="M14110 14131 c0 -5 13 -37 29 -72 16 -35 39 -97 52 -136 13 -40 29
-74 36 -74 7 -1 16 -2 21 -3 4 -1 32 -6 62 -10 30 -4 62 -9 70 -11 8 -2 32 -6
54 -10 21 -4 48 -9 60 -11 11 -3 36 -7 55 -10 18 -2 42 -9 52 -15 10 -5 19 -8
19 -5 0 3 29 -3 65 -13 36 -10 65 -14 65 -9 0 5 -33 40 -72 79 -118 115 -339
251 -473 291 -56 17 -95 21 -95 9z"/>
<path d="M8300 14221 c-8 -6 -17 -8 -21 -5 -4 2 -12 -3 -19 -11 -7 -8 -19 -15
-27 -15 -26 0 -238 -128 -284 -172 -8 -7 -35 -29 -60 -48 -42 -33 -107 -87
-183 -152 -17 -15 -25 -28 -18 -28 8 0 73 14 145 30 73 17 139 32 147 34 69
13 102 30 127 64 16 20 32 41 36 47 4 5 35 48 67 95 32 47 73 104 90 128 30
41 30 51 0 33z"/>
</g>
</svg>
